<svg class="nav-logo" viewBox="0 0 182 26" fill="none" xmlns="http://www.w3.org/2000/svg">
                        <path d="M69.0625 16.5837V0.345703H82.1911L79.7727 4.14609H72.5174V6.56451H81.5001L79.7727 9.67392H72.5174V12.7833H82.8821L80.4637 16.5837H69.0625Z" fill="white"></path>
                        <path d="M117.43 16.5837V0.345703H130.558L128.14 4.14609H120.885V6.56451H129.867L128.14 9.67392H120.885V12.7833H131.249L128.831 16.5837H117.43Z" fill="white"></path>
                        <path d="M37.2773 16.5835V0H41.4232V12.4376H51.0969L48.333 16.5835H37.2773Z" fill="white"></path>
                        <path d="M51.7871 16.5837V6.21902H55.242V12.4378H60.5338C62.1906 12.4378 63.5338 11.0947 63.5338 9.43783V7.49158C63.5338 5.83472 62.1906 4.49158 60.5338 4.49158H51.7871L53.86 0.345703H60.9886C64.3024 0.345703 66.9886 3.032 66.9886 6.3457V10.5837C66.9886 13.8974 64.3024 16.5837 60.9886 16.5837H51.7871Z" fill="white"></path>
                        <path d="M16.8925 0.345703L14.1286 4.49158H8.94626C6.65656 4.49158 4.80038 6.34775 4.80038 8.63745C4.80038 10.9272 6.65656 12.7833 8.94626 12.7833H13.0921V9.67392H6.87332L8.94626 6.91H16.8925V16.2382H8C4.13401 16.2382 1 13.1042 1 9.23822V7.3457C1 3.47971 4.13401 0.345703 8 0.345703H16.8925Z" fill="#FF0000"></path>
                        <path fillRule="evenodd" clipRule="evenodd" d="M24.6191 0H29.8936C33.2073 0 35.8936 2.68629 35.8936 6V10.5835C35.8936 13.8972 33.2073 16.5835 29.8936 16.5835H24.6191C21.3054 16.5835 18.6191 13.8972 18.6191 10.5835V6C18.6191 2.68629 21.3054 0 24.6191 0ZM22.7651 7.80042V8.78315C22.7651 10.9923 24.5559 12.7832 26.7651 12.7832H27.7478C29.9569 12.7832 31.7478 10.9923 31.7478 8.78315V7.80042C31.7478 5.59129 29.9569 3.80042 27.7478 3.80042H26.7651C24.5559 3.80042 22.7651 5.59129 22.7651 7.80042Z" fill="white"></path>
                        <path d="M87.0272 16.5835H83.5723V0H86.6817L94.9734 9.67371V0H98.0828V16.5835H94.9734L87.0272 7.25528V16.5835Z" fill="white"></path>
                        <path fillRule="evenodd" clipRule="evenodd" d="M99.8105 6.91V16.5837H110.703C113.464 16.5837 115.703 14.3451 115.703 11.5837V10.528C115.703 9.58109 115.168 8.71544 114.321 8.29196L114.548 8.06529C115.287 7.32557 115.703 6.3223 115.703 5.27619C115.703 2.55315 113.496 0.345703 110.773 0.345703H102.574L99.8105 4.49158H111.248C111.8 4.49158 112.248 4.93929 112.248 5.49158V5.91C112.248 6.46229 111.8 6.91 111.248 6.91H99.8105ZM103.265 9.6738V12.7832H111.594C112.146 12.7832 112.594 12.3355 112.594 11.7832V10.6738C112.594 10.1215 112.146 9.6738 111.594 9.6738H103.265Z" fill="white"></path>
                        <path d="M139.541 0L130.559 16.238H135.05L141.269 6.21881L144.724 12.4376H139.196L137.123 16.238H150.942L142.305 0H139.541Z" fill="white"></path>
                        <path d="M165.799 12.4378L163.726 16.5837H157.68C153.196 16.5837 149.561 12.9487 149.561 8.46471C149.561 3.9807 153.196 0.345703 157.68 0.345703H165.108L163.38 4.14609H157.507C155.217 4.14609 153.361 6.00226 153.361 8.29196C153.361 10.5817 155.217 12.4378 157.507 12.4378H165.799Z" fill="white"></path>
                        <path d="M166.49 0.345703V16.2382H169.945V10.0194H177.891V16.2382H181.001V0.345703H177.891V6.21902H169.945V0.345703H166.49Z" fill="white"></path>
                        <path d="M48.3312 23.1479H46.9492V25.9118H51.168C52.2726 25.9118 53.168 25.0164 53.168 23.9118V22.7295C53.168 21.6249 52.2726 20.7295 51.168 20.7295H47.6402L46.9492 22.1115H50.7861C51.3384 22.1115 51.7861 22.5592 51.7861 23.1114V23.5299C51.7861 24.0822 51.3384 24.5299 50.7861 24.5299H48.3312V23.1479Z" fill="white"></path>
                        <path d="M57.3136 20.7295L52.8223 25.9118H54.5497L57.3136 22.8024L58.6956 24.5299H57.3136L55.9317 25.9118H61.805L57.3136 20.7295Z" fill="white"></path>
                        <path d="M62.1504 20.7295V25.9118H63.5323V23.1479L66.6418 25.9118H68.0237V20.7295H66.6418V23.8389L63.1869 20.7295H62.1504Z" fill="white"></path>
                        <path d="M70.0605 25.9118H74.5884V24.5299H71.788C71.2357 24.5299 70.788 24.0822 70.788 23.5299V23.4569C70.788 22.9047 71.2357 22.4569 71.788 22.4569H74.5884V20.7295H70.0605C69.5083 20.7295 69.0605 21.1772 69.0605 21.7295V24.9118C69.0605 25.4641 69.5083 25.9118 70.0605 25.9118Z" fill="white"></path>
                        <path d="M75.2793 20.3843V25.9121H80.1161L81.1526 24.8756H77.0067V23.4937H80.4616V23.1482H77.0067V21.7662H80.8071L81.4981 20.3843H75.2793Z" fill="white"></path>
                        <path d="M131.248 20.3843V25.9121H136.085L137.121 24.8756H132.975V23.4937H136.43V23.1482H132.975V21.7662H136.776L137.467 20.3843H131.248Z" fill="white"></path>
                        <path d="M88.7529 25.9119H87.3709V23.839L83.916 20.0386H85.298L88.0619 22.8025L90.4803 20.0386H91.8623L88.7529 23.839V25.9119Z" fill="white"></path>
                        <path fillRule="evenodd" clipRule="evenodd" d="M93.5176 25.9118H96.7729C97.8774 25.9118 98.7729 25.0164 98.7729 23.9118V22.7295C98.7729 21.6249 97.8774 20.7295 96.7729 20.7295H93.5176C92.413 20.7295 91.5176 21.6249 91.5176 22.7295V23.9118C91.5176 25.0164 92.413 25.9118 93.5176 25.9118ZM92.8997 23.1115V23.5299C92.8997 24.0822 93.3474 24.5299 93.8997 24.5299H96.3911C96.9434 24.5299 97.3911 24.0822 97.3911 23.5299V23.1115C97.3911 22.5592 96.9434 22.1115 96.3911 22.1115H93.8997C93.3474 22.1115 92.8997 22.5592 92.8997 23.1115Z" fill="white"></path>
                        <path d="M99.4648 24.9121V20.7298H101.192V23.5302C101.192 24.0824 101.64 24.5302 102.192 24.5302H103.647C104.199 24.5302 104.647 24.0824 104.647 23.5302V20.7298H106.375V24.9121C106.375 25.4644 105.927 25.9121 105.375 25.9121H100.465C99.9126 25.9121 99.4648 25.4644 99.4648 24.9121Z" fill="white"></path>
                        <path d="M108.448 24.5302V25.9121H107.066V23.1482H112.248V22.4572H107.066L108.448 20.3843H113.975V23.8392H112.939L113.975 24.8756V25.9121H112.593L111.211 24.5302H108.448Z" fill="white"></path>
                        <path d="M117.43 25.9121V20.3843H119.157V24.5302H122.267V25.9121H117.43Z" fill="white"></path>
                        <path d="M123.303 20.3843V25.9121H125.376V20.3843H123.303Z" fill="white"></path>
                        <path d="M126.066 20.3843V25.9121H127.103V23.4937H130.558V22.8027H127.103V21.7662H130.558V20.3843H126.066Z" fill="white"></path>
                        <path d="M143.693 23.3159L180.999 23.3159" stroke="white" stroke-linecap="round"></path>
                        <path d="M1 23.3159L38.3057 23.3159" stroke="white" stroke-linecap="round"></path>
                    </svg>